<svg width="1140" height="200" viewBox="0 0 1140 200" fill="none" xmlns="http://www.w3.org/2000/svg">
<g clip-path="url(#clip0_403_5)">
<rect width="1140" height="200" rx="24" fill="#FFB94F"/>
<path d="M468.5 67.3778C468.188 67.6296 467.803 67.8222 467.344 67.9556C466.885 68.0889 466.403 68.1556 465.9 68.1556C464.626 68.1556 463.64 67.8074 462.944 67.1111C462.248 66.4148 461.9 65.4074 461.9 64.0889V58.6667H460.1V56.3333H461.9V53.4889H464.766V56.3333H467.722V58.6667H464.766V64.0222C464.766 64.5704 464.9 64.9926 465.166 65.2889C465.433 65.5852 465.811 65.7333 466.3 65.7333C466.863 65.7333 467.329 65.5704 467.7 65.2444L468.5 67.3778ZM476.718 55.9556C478.126 55.9556 479.252 56.3926 480.096 57.2667C480.955 58.1407 481.385 59.437 481.385 61.1556V68H478.518V61.6222C478.518 60.6 478.296 59.837 477.852 59.3333C477.422 58.8296 476.792 58.5778 475.963 58.5778C475.059 58.5778 474.333 58.8741 473.785 59.4667C473.252 60.0593 472.985 60.9111 472.985 62.0222V68H470.096V51.5111H472.985V57.6C473.415 57.0667 473.948 56.6593 474.585 56.3778C475.237 56.0963 475.948 55.9556 476.718 55.9556ZM489.381 68.1556C488.21 68.1556 487.159 67.8963 486.225 67.3778C485.292 66.8593 484.559 66.1333 484.025 65.2C483.507 64.2667 483.247 63.2148 483.247 62.0444C483.247 60.8741 483.507 59.8296 484.025 58.9111C484.559 57.9778 485.292 57.2519 486.225 56.7333C487.159 56.2148 488.21 55.9556 489.381 55.9556C490.536 55.9556 491.573 56.2148 492.492 56.7333C493.425 57.2519 494.151 57.9778 494.67 58.9111C495.203 59.8296 495.47 60.8741 495.47 62.0444C495.47 63.2148 495.203 64.2667 494.67 65.2C494.151 66.1333 493.425 66.8593 492.492 67.3778C491.573 67.8963 490.536 68.1556 489.381 68.1556ZM489.381 65.6667C490.299 65.6667 491.055 65.3407 491.647 64.6889C492.255 64.0222 492.559 63.1407 492.559 62.0444C492.559 60.9481 492.255 60.0741 491.647 59.4222C491.055 58.7704 490.299 58.4444 489.381 58.4444C488.447 58.4444 487.677 58.7704 487.07 59.4222C486.477 60.0741 486.181 60.9481 486.181 62.0444C486.181 63.1407 486.477 64.0222 487.07 64.6889C487.677 65.3407 488.447 65.6667 489.381 65.6667ZM508.467 68H505.756V66.3556C505.327 66.9333 504.801 67.3778 504.179 67.6889C503.556 68 502.867 68.1556 502.112 68.1556C500.63 68.1556 499.46 67.7111 498.601 66.8222C497.741 65.9333 497.312 64.6148 497.312 62.8667V56.1111H500.179V62.4444C500.179 63.4815 500.393 64.2593 500.823 64.7778C501.267 65.2815 501.897 65.5333 502.712 65.5333C503.601 65.5333 504.304 65.237 504.823 64.6444C505.341 64.0519 505.601 63.1926 505.601 62.0667V56.1111H508.467V68ZM514.91 68.1556C513.991 68.1556 513.087 68.0296 512.199 67.7778C511.324 67.5259 510.621 67.2074 510.087 66.8222L511.065 64.6444C511.569 65 512.176 65.2889 512.887 65.5111C513.599 65.7333 514.317 65.8444 515.043 65.8444C516.584 65.8444 517.354 65.4148 517.354 64.5556C517.354 64.1556 517.154 63.8741 516.754 63.7111C516.354 63.5481 515.717 63.3926 514.843 63.2444C513.924 63.0963 513.169 62.9259 512.576 62.7333C511.984 62.5259 511.473 62.1852 511.043 61.7111C510.613 61.2222 510.399 60.5481 510.399 59.6889C510.399 58.963 510.599 58.3185 510.999 57.7556C511.399 57.1926 511.976 56.7556 512.732 56.4444C513.487 56.1185 514.391 55.9556 515.443 55.9556C516.228 55.9556 517.006 56.0519 517.776 56.2444C518.562 56.4222 519.206 56.6815 519.71 57.0222L518.732 59.1778C517.739 58.5556 516.643 58.2444 515.443 58.2444C514.673 58.2444 514.095 58.3704 513.71 58.6222C513.339 58.8593 513.154 59.1778 513.154 59.5778C513.154 60.0074 513.354 60.3111 513.754 60.4889C514.169 60.6519 514.828 60.8148 515.732 60.9778C516.65 61.1407 517.399 61.3185 517.976 61.5111C518.554 61.7037 519.05 62.037 519.465 62.5111C519.895 62.9852 520.11 63.6444 520.11 64.4889C520.11 65.5852 519.65 66.4741 518.732 67.1556C517.813 67.8222 516.539 68.1556 514.91 68.1556ZM526.279 55.9556C527.968 55.9556 529.257 56.3852 530.145 57.2444C531.049 58.0889 531.501 59.363 531.501 61.0667V68H528.812V66.3778C528.501 66.9556 528.042 67.4 527.434 67.7111C526.842 68.0074 526.116 68.1556 525.257 68.1556C523.968 68.1556 522.945 67.8296 522.19 67.1778C521.434 66.5111 521.057 65.6519 521.057 64.6C521.057 63.5185 521.442 62.6667 522.212 62.0444C522.982 61.4074 524.175 61.0889 525.79 61.0889H528.634C528.634 60.5852 528.56 60.1778 528.412 59.8667C528.071 58.8593 527.234 58.3556 525.901 58.3556C525.264 58.3556 524.642 58.4667 524.034 58.6889C523.442 58.8963 522.931 59.1852 522.501 59.5556L521.457 57.4444C522.064 56.9704 522.79 56.6074 523.634 56.3556C524.494 56.0889 525.375 55.9556 526.279 55.9556ZM525.945 66.0889C526.582 66.0889 527.131 65.9407 527.59 65.6444C528.064 65.3333 528.412 64.8815 528.634 64.2889V62.8889H526.101C524.605 62.8889 523.857 63.4148 523.857 64.4667C523.857 64.9556 524.042 65.3481 524.412 65.6444C524.782 65.9407 525.294 66.0889 525.945 66.0889ZM540.404 55.9556C541.812 55.9556 542.938 56.3926 543.782 57.2667C544.641 58.1407 545.071 59.437 545.071 61.1556V68H542.204V61.6222C542.204 60.6 541.982 59.837 541.538 59.3333C541.108 58.8296 540.478 58.5778 539.649 58.5778C538.73 58.5778 537.997 58.8741 537.449 59.4667C536.915 60.0593 536.649 60.9111 536.649 62.0222V68H533.782V56.1111H536.515V57.7333C536.945 57.1704 537.493 56.7333 538.16 56.4222C538.841 56.1111 539.589 55.9556 540.404 55.9556ZM559.055 68H556.3V66.3333C555.885 66.9259 555.359 67.3778 554.722 67.6889C554.1 68 553.389 68.1556 552.589 68.1556C551.522 68.1556 550.559 67.9037 549.7 67.4C548.841 66.8963 548.166 66.1852 547.678 65.2667C547.189 64.3333 546.944 63.2593 546.944 62.0444C546.944 60.8444 547.189 59.7852 547.678 58.8667C548.166 57.9333 548.841 57.2148 549.7 56.7111C550.559 56.2074 551.522 55.9556 552.589 55.9556C553.344 55.9556 554.026 56.1037 554.633 56.4C555.255 56.6815 555.774 57.1037 556.189 57.6667V51.5111H559.055V68ZM553.055 65.6667C553.974 65.6667 554.737 65.3407 555.344 64.6889C555.952 64.0222 556.255 63.1407 556.255 62.0444C556.255 60.963 555.952 60.0963 555.344 59.4444C554.737 58.7778 553.974 58.4444 553.055 58.4444C552.122 58.4444 551.352 58.7704 550.744 59.4222C550.137 60.0741 549.833 60.9481 549.833 62.0444C549.833 63.1407 550.137 64.0222 550.744 64.6889C551.352 65.3407 552.122 65.6667 553.055 65.6667ZM568.515 55.9556C569.923 55.9556 571.048 56.3926 571.893 57.2667C572.752 58.1407 573.182 59.437 573.182 61.1556V68H570.315V61.6222C570.315 60.6 570.093 59.837 569.648 59.3333C569.219 58.8296 568.589 58.5778 567.76 58.5778C566.856 58.5778 566.13 58.8741 565.582 59.4667C565.048 60.0593 564.782 60.9111 564.782 62.0222V68H561.893V51.5111H564.782V57.6C565.211 57.0667 565.745 56.6593 566.382 56.3778C567.034 56.0963 567.745 55.9556 568.515 55.9556ZM581.555 68.8889C581.052 70.2074 580.437 71.1333 579.711 71.6667C578.985 72.2 578.111 72.4667 577.089 72.4667C576.511 72.4667 575.948 72.3704 575.4 72.1778C574.852 71.9852 574.4 71.7185 574.044 71.3778L575.111 69.2222C575.363 69.4741 575.652 69.6667 575.978 69.8C576.318 69.9333 576.659 70 577 70C577.489 70 577.881 69.8593 578.178 69.5778C578.489 69.3111 578.8 68.8074 579.111 68.0667L574.178 56.1111H577.133L580.578 64.6444L584 56.1111H586.778L581.555 68.8889ZM598.65 62.0667C598.65 62.1259 598.628 62.4 598.583 62.8889H589.85C589.983 63.763 590.361 64.4519 590.983 64.9556C591.62 65.4593 592.413 65.7111 593.361 65.7111C594.561 65.7111 595.554 65.2963 596.339 64.4667L597.872 66.2222C596.791 67.5111 595.257 68.1556 593.272 68.1556C592.028 68.1556 590.924 67.8963 589.961 67.3778C588.998 66.8444 588.25 66.1185 587.717 65.2C587.198 64.2667 586.939 63.2148 586.939 62.0444C586.939 60.8741 587.191 59.8296 587.694 58.9111C588.213 57.9778 588.924 57.2519 589.828 56.7333C590.731 56.2148 591.739 55.9556 592.85 55.9556C593.946 55.9556 594.931 56.2074 595.806 56.7111C596.694 57.2148 597.391 57.9259 597.894 58.8444C598.398 59.763 598.65 60.837 598.65 62.0667ZM592.872 58.2444C592.057 58.2444 591.368 58.5037 590.806 59.0222C590.257 59.5407 589.924 60.2296 589.806 61.0889H595.939C595.82 60.2444 595.48 59.563 594.917 59.0444C594.368 58.5111 593.687 58.2444 592.872 58.2444ZM607.207 55.9556C608.614 55.9556 609.74 56.3926 610.584 57.2667C611.444 58.1407 611.873 59.437 611.873 61.1556V68H609.007V61.6222C609.007 60.6 608.784 59.837 608.34 59.3333C607.91 58.8296 607.281 58.5778 606.451 58.5778C605.547 58.5778 604.821 58.8741 604.273 59.4667C603.74 60.0593 603.473 60.9111 603.473 62.0222V68H600.584V51.5111H603.473V57.6C603.903 57.0667 604.436 56.6593 605.073 56.3778C605.725 56.0963 606.436 55.9556 607.207 55.9556ZM620.247 68.8889C619.743 70.2074 619.128 71.1333 618.402 71.6667C617.676 72.2 616.802 72.4667 615.78 72.4667C615.202 72.4667 614.639 72.3704 614.091 72.1778C613.543 71.9852 613.091 71.7185 612.736 71.3778L613.802 69.2222C614.054 69.4741 614.343 69.6667 614.669 69.8C615.01 69.9333 615.351 70 615.691 70C616.18 70 616.573 69.8593 616.869 69.5778C617.18 69.3111 617.491 68.8074 617.802 68.0667L612.869 56.1111H615.825L619.269 64.6444L622.691 56.1111H625.469L620.247 68.8889ZM630.986 55.9556C632.675 55.9556 633.964 56.3852 634.852 57.2444C635.756 58.0889 636.208 59.363 636.208 61.0667V68H633.519V66.3778C633.208 66.9556 632.749 67.4 632.141 67.7111C631.549 68.0074 630.823 68.1556 629.964 68.1556C628.675 68.1556 627.652 67.8296 626.897 67.1778C626.141 66.5111 625.764 65.6519 625.764 64.6C625.764 63.5185 626.149 62.6667 626.919 62.0444C627.69 61.4074 628.882 61.0889 630.497 61.0889H633.341C633.341 60.5852 633.267 60.1778 633.119 59.8667C632.778 58.8593 631.941 58.3556 630.608 58.3556C629.971 58.3556 629.349 58.4667 628.741 58.6889C628.149 58.8963 627.638 59.1852 627.208 59.5556L626.164 57.4444C626.771 56.9704 627.497 56.6074 628.341 56.3556C629.201 56.0889 630.082 55.9556 630.986 55.9556ZM630.652 66.0889C631.29 66.0889 631.838 65.9407 632.297 65.6444C632.771 65.3333 633.119 64.8815 633.341 64.2889V62.8889H630.808C629.312 62.8889 628.564 63.4148 628.564 64.4667C628.564 64.9556 628.749 65.3481 629.119 65.6444C629.49 65.9407 630.001 66.0889 630.652 66.0889ZM645.111 55.9556C646.519 55.9556 647.645 56.3926 648.489 57.2667C649.348 58.1407 649.778 59.437 649.778 61.1556V68H646.911V61.6222C646.911 60.6 646.689 59.837 646.245 59.3333C645.815 58.8296 645.185 58.5778 644.356 58.5778C643.437 58.5778 642.704 58.8741 642.156 59.4667C641.622 60.0593 641.356 60.9111 641.356 62.0222V68H638.489V56.1111H641.222V57.7333C641.652 57.1704 642.2 56.7333 642.867 56.4222C643.548 56.1111 644.297 55.9556 645.111 55.9556ZM663.918 66.1333C663.918 70.3556 661.859 72.4667 657.74 72.4667C656.644 72.4667 655.614 72.3185 654.651 72.0222C653.688 71.7407 652.888 71.3259 652.251 70.7778L653.429 68.6C653.933 69.0296 654.548 69.3704 655.273 69.6222C656.014 69.8889 656.762 70.0222 657.518 70.0222C658.733 70.0222 659.622 69.7333 660.185 69.1556C660.748 68.5926 661.029 67.7185 661.029 66.5333V65.7111C660.614 66.2741 660.081 66.7037 659.429 67C658.777 67.2963 658.051 67.4444 657.251 67.4444C656.214 67.4444 655.266 67.2074 654.407 66.7333C653.548 66.2444 652.866 65.563 652.362 64.6889C651.859 63.8148 651.607 62.8148 651.607 61.6889C651.607 60.563 651.859 59.5704 652.362 58.7111C652.866 57.837 653.548 57.163 654.407 56.6889C655.266 56.2 656.214 55.9556 657.251 55.9556C658.096 55.9556 658.851 56.1185 659.518 56.4444C660.199 56.7704 660.755 57.2444 661.185 57.8667V56.1111H663.918V66.1333ZM657.807 64.9556C658.755 64.9556 659.533 64.6519 660.14 64.0444C660.762 63.437 661.073 62.6519 661.073 61.6889C661.073 60.7259 660.762 59.9481 660.14 59.3556C659.533 58.7481 658.755 58.4444 657.807 58.4444C656.859 58.4444 656.073 58.7481 655.451 59.3556C654.844 59.9481 654.54 60.7259 654.54 61.6889C654.54 62.6519 654.844 63.437 655.451 64.0444C656.073 64.6519 656.859 64.9556 657.807 64.9556ZM668.154 51.3333C668.716 51.3333 669.176 51.5111 669.531 51.8667C669.887 52.2222 670.065 52.6815 670.065 53.2444C670.065 53.5111 670.028 53.7778 669.954 54.0444C669.894 54.3111 669.761 54.7111 669.554 55.2444L668.354 58.4H666.398L667.309 54.9778C666.968 54.8296 666.702 54.6074 666.509 54.3111C666.316 54.0148 666.22 53.6593 666.22 53.2444C666.22 52.6815 666.405 52.2222 666.776 51.8667C667.146 51.5111 667.605 51.3333 668.154 51.3333ZM675.398 68.1556C674.479 68.1556 673.576 68.0296 672.687 67.7778C671.813 67.5259 671.109 67.2074 670.576 66.8222L671.554 64.6444C672.057 65 672.665 65.2889 673.376 65.5111C674.087 65.7333 674.805 65.8444 675.531 65.8444C677.072 65.8444 677.842 65.4148 677.842 64.5556C677.842 64.1556 677.642 63.8741 677.242 63.7111C676.842 63.5481 676.205 63.3926 675.331 63.2444C674.413 63.0963 673.657 62.9259 673.065 62.7333C672.472 62.5259 671.961 62.1852 671.531 61.7111C671.102 61.2222 670.887 60.5481 670.887 59.6889C670.887 58.963 671.087 58.3185 671.487 57.7556C671.887 57.1926 672.465 56.7556 673.22 56.4444C673.976 56.1185 674.879 55.9556 675.931 55.9556C676.716 55.9556 677.494 56.0519 678.265 56.2444C679.05 56.4222 679.694 56.6815 680.198 57.0222L679.22 59.1778C678.228 58.5556 677.131 58.2444 675.931 58.2444C675.161 58.2444 674.583 58.3704 674.198 58.6222C673.828 58.8593 673.642 59.1778 673.642 59.5778C673.642 60.0074 673.842 60.3111 674.242 60.4889C674.657 60.6519 675.316 60.8148 676.22 60.9778C677.139 61.1407 677.887 61.3185 678.465 61.5111C679.042 61.7037 679.539 62.037 679.954 62.5111C680.383 62.9852 680.598 63.6444 680.598 64.4889C680.598 65.5852 680.139 66.4741 679.22 67.1556C678.302 67.8222 677.028 68.1556 675.398 68.1556Z" fill="#292524"/>
<path d="M437.88 137.009C436.884 137.815 435.652 138.431 434.182 138.858C432.713 139.284 431.172 139.498 429.56 139.498C425.483 139.498 422.33 138.384 420.102 136.156C417.874 133.927 416.76 130.704 416.76 126.484V109.133H411V101.667H416.76V92.5644H425.933V101.667H435.391V109.133H425.933V126.271C425.933 128.025 426.36 129.376 427.213 130.324C428.067 131.273 429.276 131.747 430.84 131.747C432.641 131.747 434.135 131.225 435.32 130.182L437.88 137.009ZM476.111 120.013C476.111 120.203 476.04 121.08 475.898 122.644H447.951C448.378 125.441 449.587 127.646 451.578 129.258C453.616 130.87 456.153 131.676 459.187 131.676C463.027 131.676 466.203 130.348 468.716 127.693L473.622 133.311C470.161 137.436 465.255 139.498 458.902 139.498C454.92 139.498 451.388 138.668 448.307 137.009C445.225 135.302 442.831 132.979 441.124 130.04C439.465 127.053 438.636 123.687 438.636 119.942C438.636 116.197 439.441 112.855 441.053 109.916C442.713 106.929 444.988 104.606 447.88 102.947C450.772 101.287 453.996 100.458 457.551 100.458C461.059 100.458 464.212 101.264 467.009 102.876C469.853 104.487 472.081 106.763 473.693 109.702C475.305 112.641 476.111 116.079 476.111 120.013ZM457.622 107.782C455.015 107.782 452.81 108.612 451.009 110.271C449.255 111.93 448.188 114.135 447.809 116.884H467.436C467.056 114.182 465.966 112.001 464.164 110.342C462.41 108.636 460.23 107.782 457.622 107.782ZM499.226 139.498C495.433 139.498 492.02 138.668 488.986 137.009C485.999 135.35 483.652 133.027 481.946 130.04C480.239 127.053 479.386 123.687 479.386 119.942C479.386 116.197 480.239 112.855 481.946 109.916C483.652 106.929 485.999 104.606 488.986 102.947C492.02 101.287 495.433 100.458 499.226 100.458C502.876 100.458 506.076 101.264 508.826 102.876C511.575 104.44 513.614 106.692 514.941 109.631L507.83 113.756C505.839 110.2 502.947 108.422 499.154 108.422C496.12 108.422 493.631 109.465 491.688 111.551C489.744 113.637 488.772 116.434 488.772 119.942C488.772 123.498 489.744 126.319 491.688 128.404C493.631 130.49 496.12 131.533 499.154 131.533C502.947 131.533 505.839 129.756 507.83 126.2L514.941 130.396C513.566 133.287 511.504 135.539 508.754 137.151C506.005 138.716 502.829 139.498 499.226 139.498ZM541.555 100.458C546.058 100.458 549.661 101.856 552.364 104.653C555.113 107.45 556.488 111.599 556.488 117.098V139H547.315V118.591C547.315 115.32 546.604 112.879 545.181 111.267C543.807 109.655 541.792 108.849 539.137 108.849C536.245 108.849 533.922 109.797 532.168 111.693C530.461 113.59 529.608 116.316 529.608 119.871V139H520.364V86.2356H529.608V105.72C530.983 104.013 532.69 102.71 534.728 101.809C536.814 100.908 539.09 100.458 541.555 100.458ZM569.701 139.498C567.947 139.498 566.478 138.929 565.293 137.791C564.107 136.606 563.515 135.113 563.515 133.311C563.515 131.51 564.107 130.04 565.293 128.902C566.478 127.764 567.947 127.196 569.701 127.196C571.455 127.196 572.925 127.764 574.11 128.902C575.295 130.04 575.888 131.51 575.888 133.311C575.888 135.113 575.295 136.606 574.11 137.791C572.925 138.929 571.455 139.498 569.701 139.498ZM603.949 100.458C607.315 100.458 610.349 101.264 613.051 102.876C615.801 104.487 617.958 106.787 619.522 109.773C621.087 112.713 621.869 116.102 621.869 119.942C621.869 123.83 621.087 127.267 619.522 130.253C617.958 133.193 615.801 135.468 613.051 137.08C610.349 138.692 607.315 139.498 603.949 139.498C601.342 139.498 599.019 139 596.98 138.004C594.942 137.009 593.259 135.563 591.931 133.667V139H583.114V86.2356H592.358V105.933C593.685 104.132 595.345 102.781 597.336 101.88C599.327 100.932 601.531 100.458 603.949 100.458ZM602.456 131.533C605.395 131.533 607.813 130.49 609.709 128.404C611.653 126.271 612.625 123.45 612.625 119.942C612.625 116.434 611.653 113.637 609.709 111.551C607.813 109.465 605.395 108.422 602.456 108.422C599.469 108.422 597.004 109.465 595.06 111.551C593.164 113.637 592.216 116.434 592.216 119.942C592.216 123.45 593.164 126.271 595.06 128.404C597.004 130.49 599.469 131.533 602.456 131.533ZM637.358 86.2356V139H628.114V86.2356H637.358ZM663.262 139.498C659.517 139.498 656.151 138.668 653.164 137.009C650.178 135.35 647.831 133.027 646.124 130.04C644.465 127.053 643.636 123.687 643.636 119.942C643.636 116.197 644.465 112.855 646.124 109.916C647.831 106.929 650.178 104.606 653.164 102.947C656.151 101.287 659.517 100.458 663.262 100.458C666.96 100.458 670.279 101.287 673.218 102.947C676.204 104.606 678.527 106.929 680.187 109.916C681.893 112.855 682.747 116.197 682.747 119.942C682.747 123.687 681.893 127.053 680.187 130.04C678.527 133.027 676.204 135.35 673.218 137.009C670.279 138.668 666.96 139.498 663.262 139.498ZM663.262 131.533C666.201 131.533 668.619 130.49 670.516 128.404C672.459 126.271 673.431 123.45 673.431 119.942C673.431 116.434 672.459 113.637 670.516 111.551C668.619 109.465 666.201 108.422 663.262 108.422C660.276 108.422 657.81 109.465 655.867 111.551C653.97 113.637 653.022 116.434 653.022 119.942C653.022 123.45 653.97 126.271 655.867 128.404C657.81 130.49 660.276 131.533 663.262 131.533ZM725.406 133.027C725.406 146.538 718.816 153.293 705.637 153.293C702.129 153.293 698.834 152.819 695.753 151.871C692.671 150.97 690.111 149.643 688.073 147.889L691.842 140.92C693.454 142.295 695.421 143.385 697.744 144.191C700.114 145.044 702.508 145.471 704.926 145.471C708.814 145.471 711.658 144.547 713.459 142.698C715.261 140.896 716.162 138.099 716.162 134.307V131.676C714.834 133.477 713.128 134.852 711.042 135.8C708.956 136.748 706.633 137.222 704.073 137.222C700.754 137.222 697.72 136.464 694.971 134.947C692.221 133.382 690.04 131.201 688.428 128.404C686.816 125.607 686.011 122.407 686.011 118.804C686.011 115.201 686.816 112.025 688.428 109.276C690.04 106.479 692.221 104.321 694.971 102.804C697.72 101.24 700.754 100.458 704.073 100.458C706.775 100.458 709.193 100.979 711.326 102.022C713.507 103.065 715.285 104.582 716.659 106.573V100.956H725.406V133.027ZM705.851 129.258C708.885 129.258 711.374 128.286 713.317 126.342C715.308 124.399 716.304 121.886 716.304 118.804C716.304 115.723 715.308 113.234 713.317 111.338C711.374 109.394 708.885 108.422 705.851 108.422C702.816 108.422 700.304 109.394 698.313 111.338C696.369 113.234 695.397 115.723 695.397 118.804C695.397 121.886 696.369 124.399 698.313 126.342C700.304 128.286 702.816 129.258 705.851 129.258Z" fill="#FAFAF9"/>
<ellipse cx="1018.5" cy="78" rx="134.5" ry="124" fill="#FFA726" fill-opacity="0.5"/>
<ellipse cx="181.5" cy="229" rx="146.5" ry="135" fill="#FFA726"/>
<ellipse cx="82" cy="34.5" rx="109" ry="100.5" fill="#FFA726" fill-opacity="0.5"/>
<g clip-path="url(#clip1_403_5)">
<path d="M844.833 173.917C844.833 131.9 878.896 97.8333 920.912 97.8333C962.933 97.8333 996.995 131.896 996.995 173.917C996.995 215.938 962.933 250 920.912 250C878.891 250 844.833 215.938 844.833 173.917Z" fill="#F59E0B"/>
<path d="M883.631 118.975C882.4 117.744 879.956 118.067 877.383 119.529C862.167 106.931 837.483 102.689 836.367 102.504C835.178 102.339 833.97 102.645 833.002 103.356C832.035 104.067 831.382 105.128 831.185 106.313C830.987 107.498 831.259 108.713 831.944 109.7C832.629 110.687 833.671 111.368 834.85 111.597C835.095 111.639 857.602 115.535 870.914 126.169C869.646 128.589 869.42 130.849 870.591 132.015C872.389 133.818 876.77 132.357 880.371 128.755C883.973 125.154 885.43 120.778 883.631 118.975Z" fill="#662113"/>
<path d="M927.833 88.6112C927.833 88.6112 913.511 108.522 895.459 112.926C881.722 116.278 863.467 116.601 861.645 112.358C859.829 108.121 868.894 94.2045 884.558 87.4907C900.222 80.7769 927.833 88.6112 927.833 88.6112Z" fill="#6A9E4A"/>
</g>
</g>
<defs>
<clipPath id="clip0_403_5">
<rect width="1140" height="200" rx="24" fill="white"/>
</clipPath>
<clipPath id="clip1_403_5">
<rect width="166" height="166" fill="white" transform="translate(831 84)"/>
</clipPath>
</defs>
</svg>
