<svg width="230" height="22" viewBox="0 0 230 22" fill="none" xmlns="http://www.w3.org/2000/svg">
<g clip-path="url(#clip0_400_81)">
<path d="M1.66666 11.8334C1.66666 6.77119 5.77055 2.66675 10.8328 2.66675C15.8955 2.66675 19.9994 6.77064 19.9994 11.8334C19.9994 16.8962 15.8955 21.0001 10.8328 21.0001C5.76999 21.0001 1.66666 16.8962 1.66666 11.8334Z" fill="#F59E0B"/>
<path d="M6.34113 5.21385C6.19279 5.06552 5.89835 5.10441 5.58835 5.28052C3.75501 3.76274 0.781126 3.25163 0.646681 3.22941C0.503339 3.20949 0.357884 3.2463 0.241265 3.332C0.124647 3.41769 0.0460701 3.54551 0.022255 3.68826C-0.00156007 3.831 0.0312661 3.97741 0.113749 4.09632C0.196232 4.21523 0.32186 4.29726 0.463903 4.32496C0.493348 4.32996 3.20501 4.79941 4.8089 6.08052C4.65613 6.37219 4.6289 6.64441 4.77001 6.78496C4.98668 7.00219 5.51446 6.82607 5.94835 6.39219C6.38224 5.9583 6.55779 5.43107 6.34113 5.21385Z" fill="#662113"/>
<path d="M11.6667 1.55558C11.6667 1.55558 9.94112 3.95447 7.76612 4.48502C6.11112 4.88891 3.91168 4.9278 3.69224 4.41669C3.47335 3.90613 4.56557 2.22947 6.45279 1.42058C8.34001 0.611689 11.6667 1.55558 11.6667 1.55558Z" fill="#6A9E4A"/>
</g>
<g clip-path="url(#clip1_400_81)">
<path d="M229.818 15.1333C229.818 19.3556 227.759 21.4667 223.641 21.4667C222.544 21.4667 221.515 21.3185 220.552 21.0222C219.891 20.8291 219.307 20.5732 218.8 20.2546C218.402 20.0045 218.311 19.4829 218.535 19.0694L218.741 18.6873C219.044 18.1276 219.791 17.9914 220.359 18.2788C220.613 18.4074 220.885 18.5219 221.174 18.6222C221.915 18.8889 222.663 19.0222 223.418 19.0222C224.633 19.0222 225.522 18.7333 226.085 18.1556C226.648 17.5926 226.929 16.7185 226.929 15.5333C226.929 15.2725 226.572 15.1452 226.378 15.3194C226.072 15.5947 225.722 15.8215 225.329 16C224.678 16.2963 223.952 16.4445 223.152 16.4445C222.115 16.4445 221.166 16.2074 220.307 15.7333C219.448 15.2445 218.766 14.563 218.263 13.6889C217.759 12.8148 217.507 11.8148 217.507 10.6889C217.507 9.56297 217.759 8.57038 218.263 7.71112C218.766 6.83705 219.448 6.16297 220.307 5.6889C221.166 5.20001 222.115 4.95557 223.152 4.95557C223.996 4.95557 224.752 5.11853 225.418 5.44446C225.688 5.57325 225.937 5.72517 226.167 5.90023C226.493 6.14812 227.085 5.93754 227.085 5.52829C227.085 5.2979 227.272 5.11112 227.502 5.11112H228.818C229.371 5.11112 229.818 5.55884 229.818 6.11112V15.1333ZM223.707 13.9556C224.655 13.9556 225.433 13.6519 226.041 13.0445C226.663 12.437 226.974 11.6519 226.974 10.6889C226.974 9.72594 226.663 8.94816 226.041 8.35557C225.433 7.74816 224.655 7.44446 223.707 7.44446C222.759 7.44446 221.974 7.74816 221.352 8.35557C220.744 8.94816 220.441 9.72594 220.441 10.6889C220.441 11.6519 220.744 12.437 221.352 13.0445C221.974 13.6519 222.759 13.9556 223.707 13.9556Z" fill="#F59E0B"/>
<path d="M211.012 4.95557C212.419 4.95557 213.545 5.3926 214.39 6.26668C215.249 7.14075 215.678 8.43705 215.678 10.1556V16C215.678 16.5523 215.231 17 214.678 17H213.812C213.259 17 212.812 16.5523 212.812 16V10.6222C212.812 9.60001 212.59 8.83705 212.145 8.33334C211.715 7.82964 211.086 7.57779 210.256 7.57779C209.338 7.57779 208.604 7.87409 208.056 8.46668C207.523 9.05927 207.256 9.91112 207.256 11.0222V16C207.256 16.5523 206.808 17 206.256 17H205.39C204.837 17 204.39 16.5523 204.39 16V6.11112C204.39 5.55884 204.837 5.11112 205.39 5.11112H206.713C206.939 5.11112 207.123 5.29459 207.123 5.52091C207.123 5.91299 207.668 6.11825 207.984 5.88546C208.224 5.70845 208.485 5.55404 208.767 5.42223C209.449 5.11112 210.197 4.95557 211.012 4.95557Z" fill="#F59E0B"/>
<path d="M196.886 4.95557C198.575 4.95557 199.864 5.3852 200.753 6.24446C201.657 7.0889 202.108 8.36297 202.108 10.0667V16C202.108 16.5523 201.661 17 201.108 17H199.746C199.566 17 199.419 16.8538 199.419 16.6734C199.419 16.334 198.859 16.1531 198.591 16.362C198.424 16.4927 198.241 16.6091 198.042 16.7111C197.449 17.0074 196.723 17.1556 195.864 17.1556C194.575 17.1556 193.553 16.8296 192.797 16.1778C192.042 15.5111 191.664 14.6519 191.664 13.6C191.664 12.5185 192.049 11.6667 192.82 11.0445C193.59 10.4074 194.782 10.0889 196.397 10.0889H198.242C198.794 10.0889 199.279 9.62752 199.111 9.10127C199.085 9.01778 199.054 8.93959 199.02 8.86668C198.679 7.85927 197.842 7.35557 196.508 7.35557C195.871 7.35557 195.249 7.46668 194.642 7.6889C194.487 7.74299 194.338 7.80263 194.195 7.86781C193.6 8.1381 192.826 7.98493 192.536 7.39921L192.425 7.17484C192.215 6.74957 192.329 6.22722 192.74 5.9906C193.19 5.7316 193.691 5.51992 194.242 5.35557C195.101 5.0889 195.982 4.95557 196.886 4.95557ZM196.553 15.0889C197.19 15.0889 197.738 14.9408 198.197 14.6445C198.625 14.3635 198.951 13.9676 199.174 13.457C199.222 13.3471 199.242 13.2275 199.242 13.1076V12.8889C199.242 12.3366 198.794 11.8889 198.242 11.8889H196.708C195.212 11.8889 194.464 12.4148 194.464 13.4667C194.464 13.9556 194.649 14.3482 195.02 14.6445C195.39 14.9408 195.901 15.0889 196.553 15.0889Z" fill="#F59E0B"/>
<path d="M186.147 17.8891C185.644 19.2076 185.029 20.1336 184.303 20.6669C183.577 21.2002 182.703 21.4669 181.681 21.4669C181.103 21.4669 180.54 21.3706 179.992 21.178C179.709 21.0786 179.451 20.9594 179.22 20.8204C178.845 20.5958 178.768 20.1117 178.962 19.7203L179.238 19.1622C179.466 18.7007 180.093 18.6052 180.569 18.8002C180.91 18.9335 181.251 19.0002 181.592 19.0002C182.081 19.0002 182.473 18.8595 182.769 18.578C183.024 18.3598 183.279 17.9828 183.533 17.4472C183.648 17.2065 183.646 16.9284 183.544 16.682L179.339 6.49277C179.068 5.8345 179.552 5.11133 180.264 5.11133H181.05C181.458 5.11133 181.825 5.35891 181.978 5.73702L184.239 11.3399C184.576 12.1752 185.759 12.1738 186.095 11.3378L188.34 5.7391C188.492 5.35988 188.859 5.11133 189.268 5.11133H189.88C190.591 5.11133 191.075 5.83181 190.806 6.48965L186.147 17.8891Z" fill="#F59E0B"/>
<path d="M173.107 4.95568C174.514 4.95568 175.64 5.39271 176.485 6.26679C177.344 7.14086 177.774 8.43716 177.774 10.1557V16.0001C177.774 16.5524 177.326 17.0001 176.774 17.0001H175.907C175.355 17.0001 174.907 16.5524 174.907 16.0001V10.6223C174.907 9.60012 174.685 8.83716 174.24 8.33345C173.811 7.82975 173.181 7.5779 172.351 7.5779C171.448 7.5779 170.722 7.87419 170.174 8.46679C169.64 9.05938 169.374 9.91123 169.374 11.0223V16.0001C169.374 16.5524 168.926 17.0001 168.374 17.0001H167.485C166.932 17.0001 166.485 16.5524 166.485 16.0001V1.51123C166.485 0.958947 166.932 0.51123 167.485 0.51123H168.374C168.926 0.51123 169.374 0.958946 169.374 1.51123V4.56709C169.374 5.24365 170.355 5.65134 170.974 5.3779C171.625 5.09642 172.337 4.95568 173.107 4.95568Z" fill="#F59E0B"/>
<path d="M164.55 11.0667C164.55 11.5339 164.126 11.8889 163.659 11.8889H156.914C156.302 11.8889 155.817 12.4504 156.098 12.9944C156.291 13.3672 156.553 13.6876 156.884 13.9556C157.521 14.4593 158.313 14.7111 159.261 14.7111C160.062 14.7111 160.771 14.5263 161.387 14.1567C161.893 13.8533 162.575 13.8508 162.963 14.295L163.209 14.5774C163.534 14.9486 163.546 15.51 163.173 15.8317C162.149 16.7143 160.815 17.1556 159.173 17.1556C157.928 17.1556 156.824 16.8963 155.861 16.3778C154.899 15.8445 154.15 15.1185 153.617 14.2C153.098 13.2667 152.839 12.2148 152.839 11.0445C152.839 9.87409 153.091 8.82964 153.595 7.91112C154.113 6.97779 154.824 6.25186 155.728 5.73335C156.632 5.21483 157.639 4.95557 158.75 4.95557C159.847 4.95557 160.832 5.20742 161.706 5.71112C162.595 6.21483 163.291 6.92594 163.795 7.84446C164.298 8.76297 164.55 9.83705 164.55 11.0667ZM158.773 7.24446C157.958 7.24446 157.269 7.50372 156.706 8.02223C156.416 8.29662 156.186 8.6187 156.016 8.9885C155.763 9.53979 156.247 10.0889 156.853 10.0889H160.689C161.297 10.0889 161.78 9.53715 161.517 8.98956C161.344 8.63013 161.111 8.31509 160.817 8.04446C160.269 7.51112 159.587 7.24446 158.773 7.24446Z" fill="#F59E0B"/>
<path d="M147.456 17.8891C146.952 19.2076 146.337 20.1336 145.611 20.6669C144.885 21.2002 144.011 21.4669 142.989 21.4669C142.411 21.4669 141.848 21.3706 141.3 21.178C141.017 21.0786 140.76 20.9594 140.528 20.8204C140.154 20.5958 140.076 20.1117 140.27 19.7203L140.546 19.1622C140.775 18.7007 141.401 18.6052 141.878 18.8002C142.219 18.9335 142.56 19.0002 142.9 19.0002C143.389 19.0002 143.782 18.8595 144.078 18.578C144.333 18.3598 144.587 17.9828 144.842 17.4472C144.956 17.2065 144.954 16.9284 144.853 16.682L140.648 6.49277C140.376 5.8345 140.86 5.11133 141.572 5.11133H142.359C142.767 5.11133 143.134 5.35891 143.286 5.73702L145.548 11.3399C145.885 12.1752 147.068 12.1738 147.403 11.3378L149.648 5.7391C149.801 5.35988 150.168 5.11133 150.577 5.11133H151.189C151.9 5.11133 152.384 5.83181 152.115 6.48965L147.456 17.8891Z" fill="#F59E0B"/>
<path d="M134.416 4.95568C135.823 4.95568 136.949 5.39271 137.793 6.26679C138.653 7.14086 139.082 8.43716 139.082 10.1557V16.0001C139.082 16.5524 138.635 17.0001 138.082 17.0001H137.216C136.663 17.0001 136.216 16.5524 136.216 16.0001V10.6223C136.216 9.60012 135.993 8.83716 135.549 8.33345C135.119 7.82975 134.49 7.5779 133.66 7.5779C132.756 7.5779 132.03 7.87419 131.482 8.46679C130.949 9.05938 130.682 9.91123 130.682 11.0223V16.0001C130.682 16.5524 130.235 17.0001 129.682 17.0001H128.793C128.241 17.0001 127.793 16.5524 127.793 16.0001V1.51123C127.793 0.958947 128.241 0.51123 128.793 0.51123H129.682C130.235 0.51123 130.682 0.958946 130.682 1.51123V4.5671C130.682 5.24365 131.663 5.65134 132.282 5.3779C132.934 5.09642 133.645 4.95568 134.416 4.95568Z" fill="#F59E0B"/>
<path d="M124.956 16.0001C124.956 16.5524 124.508 17.0001 123.956 17.0001H122.6C122.379 17.0001 122.2 16.8213 122.2 16.6007C122.2 16.2101 121.641 16.0109 121.332 16.2495C121.113 16.4184 120.877 16.5649 120.622 16.689C120 17.0001 119.289 17.1557 118.489 17.1557C117.422 17.1557 116.459 16.9038 115.6 16.4001C114.741 15.8964 114.067 15.1853 113.578 14.2668C113.089 13.3335 112.845 12.2594 112.845 11.0446C112.845 9.84457 113.089 8.78531 113.578 7.86679C114.067 6.93345 114.741 6.21493 115.6 5.71123C116.459 5.20753 117.422 4.95568 118.489 4.95568C119.245 4.95568 119.926 5.10382 120.534 5.40012C121.12 5.66536 122.089 5.28173 122.089 4.63819V1.51123C122.089 0.958945 122.537 0.51123 123.089 0.51123H123.956C124.508 0.51123 124.956 0.958946 124.956 1.51123V16.0001ZM118.956 14.6668C119.874 14.6668 120.637 14.3409 121.245 13.689C121.852 13.0223 122.156 12.1409 122.156 11.0446C122.156 9.96308 121.852 9.09642 121.245 8.44456C120.637 7.7779 119.874 7.44456 118.956 7.44456C118.022 7.44456 117.252 7.77049 116.645 8.42234C116.037 9.07419 115.734 9.94827 115.734 11.0446C115.734 12.1409 116.037 13.0223 116.645 13.689C117.252 14.3409 118.022 14.6668 118.956 14.6668Z" fill="#F59E0B"/>
<path d="M106.305 4.95557C107.712 4.95557 108.838 5.3926 109.682 6.26668C110.542 7.14075 110.971 8.43705 110.971 10.1556V16C110.971 16.5523 110.524 17 109.971 17H109.105C108.552 17 108.105 16.5523 108.105 16V10.6222C108.105 9.60001 107.882 8.83705 107.438 8.33334C107.008 7.82964 106.379 7.57779 105.549 7.57779C104.631 7.57779 103.897 7.87409 103.349 8.46668C102.816 9.05927 102.549 9.91112 102.549 11.0222V16C102.549 16.5523 102.101 17 101.549 17H100.682C100.13 17 99.6825 16.5523 99.6825 16V6.11112C99.6825 5.55884 100.13 5.11112 100.682 5.11112H102.006C102.232 5.11112 102.416 5.29459 102.416 5.52091C102.416 5.91299 102.961 6.11825 103.277 5.88546C103.517 5.70845 103.778 5.55404 104.06 5.42223C104.742 5.11112 105.49 4.95557 106.305 4.95557Z" fill="#F59E0B"/>
<path d="M92.1791 4.95557C93.868 4.95557 95.1569 5.3852 96.0458 6.24446C96.9495 7.0889 97.4014 8.36297 97.4014 10.0667V16C97.4014 16.5523 96.9536 17 96.4014 17H95.0391C94.8587 17 94.7125 16.8538 94.7125 16.6734C94.7125 16.334 94.1519 16.1531 93.8845 16.362C93.7171 16.4927 93.5339 16.6091 93.3347 16.7111C92.7421 17.0074 92.0162 17.1556 91.1569 17.1556C89.868 17.1556 88.8458 16.8296 88.0902 16.1778C87.3347 15.5111 86.9569 14.6519 86.9569 13.6C86.9569 12.5185 87.3421 11.6667 88.1125 11.0445C88.8828 10.4074 90.0754 10.0889 91.6902 10.0889H93.5347C94.087 10.0889 94.572 9.62752 94.4044 9.10127C94.3778 9.01778 94.3472 8.93959 94.3125 8.86668C93.9717 7.85927 93.1347 7.35557 91.8014 7.35557C91.1643 7.35557 90.5421 7.46668 89.9347 7.6889C89.7801 7.74299 89.6311 7.80263 89.4877 7.86781C88.8927 8.1381 88.119 7.98494 87.8293 7.39922L87.7183 7.17484C87.5079 6.74957 87.6216 6.22722 88.0329 5.9906C88.483 5.7316 88.9836 5.51992 89.5347 5.35557C90.3939 5.0889 91.2754 4.95557 92.1791 4.95557ZM91.8458 15.0889C92.4828 15.0889 93.031 14.9408 93.4902 14.6445C93.9184 14.3635 94.2439 13.9676 94.4666 13.457C94.5146 13.3471 94.5347 13.2275 94.5347 13.1076V12.8889C94.5347 12.3366 94.087 11.8889 93.5347 11.8889H92.0014C90.5051 11.8889 89.7569 12.4148 89.7569 13.4667C89.7569 13.9556 89.9421 14.3482 90.3125 14.6445C90.6828 14.9408 91.1939 15.0889 91.8458 15.0889Z" fill="#F59E0B"/>
<path d="M80.81 17.1556C79.8915 17.1556 78.9878 17.0296 78.0989 16.7778C77.5641 16.6237 77.093 16.4446 76.6858 16.2406C76.2616 16.0281 76.1272 15.5118 76.3215 15.079L76.4684 14.7519C76.726 14.178 77.4483 13.9817 78.0261 14.2306C78.2652 14.3337 78.5191 14.4271 78.7878 14.5111C79.4989 14.7333 80.2174 14.8445 80.9433 14.8445C82.4841 14.8445 83.2545 14.4148 83.2545 13.5556C83.2545 13.1556 83.0545 12.8741 82.6545 12.7111C82.2545 12.5482 81.6174 12.3926 80.7434 12.2445C79.8248 12.0963 79.0693 11.9259 78.4767 11.7333C77.8841 11.5259 77.373 11.1852 76.9433 10.7111C76.5137 10.2222 76.2989 9.54816 76.2989 8.6889C76.2989 7.96297 76.4989 7.31853 76.8989 6.75557C77.2989 6.1926 77.8767 5.75557 78.6322 5.44446C79.3878 5.11853 80.2915 4.95557 81.3433 4.95557C82.1285 4.95557 82.9063 5.05186 83.6767 5.24446C84.1185 5.34449 84.5158 5.47033 84.8685 5.62197C85.3163 5.81449 85.4628 6.34688 85.2614 6.79076L85.1048 7.136C84.8547 7.68734 84.1764 7.88341 83.6128 7.66231C82.9028 7.38374 82.1463 7.24446 81.3433 7.24446C80.573 7.24446 79.9952 7.37038 79.61 7.62223C79.2396 7.85927 79.0545 8.17779 79.0545 8.57779C79.0545 9.00742 79.2545 9.31112 79.6545 9.4889C80.0693 9.65186 80.7285 9.81483 81.6322 9.97779C82.5508 10.1408 83.2989 10.3185 83.8767 10.5111C84.4545 10.7037 84.9508 11.037 85.3656 11.5111C85.7952 11.9852 86.01 12.6445 86.01 13.4889C86.01 14.5852 85.5508 15.4741 84.6322 16.1556C83.7137 16.8222 82.4396 17.1556 80.81 17.1556Z" fill="#F59E0B"/>
<path d="M74.3678 16.0002C74.3678 16.5525 73.9201 17.0002 73.3678 17.0002H72.0657C71.8398 17.0002 71.6567 16.8171 71.6567 16.5912C71.6567 16.1973 71.1087 15.9967 70.7973 16.238C70.5741 16.4109 70.3347 16.5612 70.0789 16.6891C69.4567 17.0002 68.7678 17.1558 68.0123 17.1558C66.5308 17.1558 65.3604 16.7113 64.5012 15.8224C63.6419 14.9336 63.2123 13.615 63.2123 11.8669V6.11133C63.2123 5.55904 63.66 5.11133 64.2123 5.11133H65.0789C65.6312 5.11133 66.0789 5.55904 66.0789 6.11133V11.4447C66.0789 12.4817 66.2938 13.2595 66.7234 13.778C67.1678 14.2817 67.7975 14.5336 68.6123 14.5336C69.5012 14.5336 70.2049 14.2373 70.7234 13.6447C71.2419 13.0521 71.5012 12.1928 71.5012 11.0669V6.11133C71.5012 5.55904 71.9489 5.11133 72.5012 5.11133H73.3678C73.9201 5.11133 74.3678 5.55904 74.3678 6.11133V16.0002Z" fill="#F59E0B"/>
<path d="M55.2812 17.1556C54.1108 17.1556 53.0589 16.8963 52.1256 16.3778C51.1923 15.8593 50.4589 15.1333 49.9256 14.2C49.4071 13.2667 49.1478 12.2148 49.1478 11.0445C49.1478 9.87409 49.4071 8.82964 49.9256 7.91112C50.4589 6.97779 51.1923 6.25186 52.1256 5.73335C53.0589 5.21483 54.1108 4.95557 55.2812 4.95557C56.4367 4.95557 57.4738 5.21483 58.3923 5.73335C59.3256 6.25186 60.0515 6.97779 60.5701 7.91112C61.1034 8.82964 61.3701 9.87409 61.3701 11.0445C61.3701 12.2148 61.1034 13.2667 60.5701 14.2C60.0515 15.1333 59.3256 15.8593 58.3923 16.3778C57.4738 16.8963 56.4367 17.1556 55.2812 17.1556ZM55.2812 14.6667C56.1997 14.6667 56.9552 14.3408 57.5478 13.6889C58.1552 13.0222 58.4589 12.1408 58.4589 11.0445C58.4589 9.94816 58.1552 9.07409 57.5478 8.42223C56.9552 7.77038 56.1997 7.44446 55.2812 7.44446C54.3478 7.44446 53.5775 7.77038 52.9701 8.42223C52.3775 9.07409 52.0812 9.94816 52.0812 11.0445C52.0812 12.1408 52.3775 13.0222 52.9701 13.6889C53.5775 14.3408 54.3478 14.6667 55.2812 14.6667Z" fill="#F59E0B"/>
<path d="M42.6187 4.95568C44.0261 4.95568 45.152 5.39271 45.9965 6.26679C46.8557 7.14086 47.2853 8.43716 47.2853 10.1557V16.0001C47.2853 16.5524 46.8376 17.0001 46.2853 17.0001H45.4187C44.8664 17.0001 44.4187 16.5524 44.4187 16.0001V10.6223C44.4187 9.60012 44.1965 8.83716 43.752 8.33345C43.3224 7.82975 42.6928 7.5779 41.8631 7.5779C40.9594 7.5779 40.2335 7.87419 39.6853 8.46679C39.152 9.05938 38.8853 9.91123 38.8853 11.0223V16.0001C38.8853 16.5524 38.4376 17.0001 37.8853 17.0001H36.9965C36.4442 17.0001 35.9965 16.5524 35.9965 16.0001V1.51123C35.9965 0.958947 36.4442 0.51123 36.9965 0.51123H37.8853C38.4376 0.51123 38.8853 0.958946 38.8853 1.51123V4.5671C38.8853 5.24365 39.8665 5.65134 40.4853 5.3779C41.1372 5.09642 41.8483 4.95568 42.6187 4.95568Z" fill="#F59E0B"/>
<path d="M34.1469 15.7028C34.2981 16.1058 34.1783 16.5736 33.7877 16.7543C33.6199 16.832 33.4388 16.899 33.2444 16.9554C32.7852 17.0888 32.3037 17.1554 31.8 17.1554C30.5259 17.1554 29.5407 16.8073 28.8444 16.111C28.1481 15.4147 27.8 14.4073 27.8 13.0888V8.56655C27.8 8.06949 27.3971 7.66655 26.9 7.66655C26.4029 7.66655 26 7.26361 26 6.76655V6.23321C26 5.73616 26.4029 5.33321 26.9 5.33321C27.3971 5.33321 27.8 4.93027 27.8 4.43321V3.48877C27.8 2.93648 28.2477 2.48877 28.8 2.48877H29.6667C30.219 2.48877 30.6667 2.93648 30.6667 3.48877V4.33321C30.6667 4.8855 31.1144 5.33321 31.6667 5.33321H32.6222C33.1745 5.33321 33.6222 5.78093 33.6222 6.33321V6.66655C33.6222 7.21883 33.1745 7.66655 32.6222 7.66655H31.6667C31.1144 7.66655 30.6667 8.11426 30.6667 8.66655V13.0221C30.6667 13.5703 30.8 13.9925 31.0667 14.2888C31.3333 14.5851 31.7111 14.7332 32.2 14.7332C32.2228 14.7332 32.2454 14.7329 32.2678 14.7324C32.9676 14.7158 33.8631 14.946 34.1089 15.6014L34.1469 15.7028Z" fill="#F59E0B"/>
</g>
<defs>
<clipPath id="clip0_400_81">
<rect width="20" height="20" fill="white" transform="translate(0 1)"/>
</clipPath>
<clipPath id="clip1_400_81">
<rect width="204" height="22" fill="white" transform="translate(26)"/>
</clipPath>
</defs>
</svg>
