<svg width="20" height="20" viewBox="0 0 20 20" fill="none" xmlns="http://www.w3.org/2000/svg">
<g clip-path="url(#clip0_400_77)">
<path d="M1.66666 10.8334C1.66666 5.77119 5.77055 1.66675 10.8328 1.66675C15.8955 1.66675 19.9994 5.77064 19.9994 10.8334C19.9994 15.8962 15.8955 20.0001 10.8328 20.0001C5.76999 20.0001 1.66666 15.8962 1.66666 10.8334Z" fill="#F59E0B"/>
<path d="M6.34113 4.21385C6.19279 4.06552 5.89835 4.10441 5.58835 4.28052C3.75501 2.76274 0.781125 2.25163 0.646681 2.22941C0.503339 2.20949 0.357884 2.2463 0.241265 2.332C0.124647 2.41769 0.0460701 2.54551 0.022255 2.68826C-0.00156007 2.831 0.0312661 2.97741 0.113749 3.09632C0.196232 3.21523 0.32186 3.29726 0.463903 3.32496C0.493348 3.32996 3.20501 3.79941 4.8089 5.08052C4.65613 5.37219 4.6289 5.64441 4.77001 5.78496C4.98668 6.00219 5.51446 5.82607 5.94835 5.39219C6.38224 4.9583 6.55779 4.43107 6.34113 4.21385Z" fill="#662113"/>
<path d="M11.6667 0.555578C11.6667 0.555578 9.94112 2.95447 7.76612 3.48502C6.11112 3.88891 3.91168 3.9278 3.69224 3.41669C3.47335 2.90613 4.56557 1.22947 6.45279 0.420578C8.34001 -0.388311 11.6667 0.555578 11.6667 0.555578Z" fill="#6A9E4A"/>
</g>
<defs>
<clipPath id="clip0_400_77">
<rect width="20" height="20" fill="white"/>
</clipPath>
</defs>
</svg>
